<svg width="32" height="32" viewBox="0 0 32 32" fill="none" xmlns="http://www.w3.org/2000/svg">
<path d="M23.7578 8.33929H22.7396C22.5942 6.64232 21.9154 5.13929 20.7033 4.07262C19.4427 2.90898 17.7942 2.27868 16.0487 2.27868H15.9518C14.2548 2.27868 12.6063 2.90898 11.2972 4.07262C10.0851 5.13929 9.40631 6.6908 9.26086 8.33929H8.24268C8.38813 6.35141 9.21237 4.55747 10.6184 3.29686C12.073 1.98777 13.9639 1.2605 15.9518 1.2605H16.0487C18.0366 1.2605 19.9275 1.98777 21.3821 3.29686C22.7881 4.55747 23.6124 6.35141 23.7578 8.33929Z" fill="#388FF3"/>
<path d="M18.7152 16.2908H13.2849C12.994 16.2908 12.7516 16.5332 12.7516 16.8241V19.7817C12.7516 20.0726 12.994 20.315 13.2849 20.315H18.6667C18.9576 20.315 19.2001 20.0726 19.2001 19.7817V16.8241C19.2001 16.5332 18.9576 16.2908 18.7152 16.2908ZM18.7152 16.2908H13.2849C12.994 16.2908 12.7516 16.5332 12.7516 16.8241V19.7817C12.7516 20.0726 12.994 20.315 13.2849 20.315H18.6667C18.9576 20.315 19.2001 20.0726 19.2001 19.7817V16.8241C19.2001 16.5332 18.9576 16.2908 18.7152 16.2908ZM18.7152 16.2908H13.2849C12.994 16.2908 12.7516 16.5332 12.7516 16.8241V19.7817C12.7516 20.0726 12.994 20.315 13.2849 20.315H18.6667C18.9576 20.315 19.2001 20.0726 19.2001 19.7817V16.8241C19.2001 16.5332 18.9576 16.2908 18.7152 16.2908ZM18.7152 16.2908H13.2849C12.994 16.2908 12.7516 16.5332 12.7516 16.8241V19.7817C12.7516 20.0726 12.994 20.315 13.2849 20.315H18.6667C18.9576 20.315 19.2001 20.0726 19.2001 19.7817V16.8241C19.2001 16.5332 18.9576 16.2908 18.7152 16.2908ZM31.4183 25.4059L29.1395 15.7089C28.9455 16.1453 28.7031 16.5817 28.4122 16.9695C27.394 18.2786 25.8425 19.0059 24.194 19.0059H21.3334C21.0425 19.0059 20.8001 18.7635 20.8001 18.4726C20.8001 18.1817 21.0425 17.9392 21.3334 17.9392H24.194C25.5516 17.9392 26.7637 17.3574 27.5879 16.2908C28.4122 15.2241 28.7031 13.915 28.4122 12.6059L27.9273 10.618C27.7334 9.89076 27.1031 9.35742 26.3273 9.35742H5.67279C4.89704 9.35742 4.26673 9.89076 4.07279 10.618L3.63643 12.6059C3.34552 13.915 3.63643 15.2726 4.46067 16.2908C5.28491 17.3574 6.54552 17.9392 7.85461 17.9392H10.7152C11.0061 17.9392 11.2486 18.1817 11.2486 18.4726C11.2486 18.7635 11.0061 19.0059 10.7152 19.0059H7.85461C6.20613 19.0059 4.65461 18.2786 3.63643 16.9695C3.34552 16.5817 3.1031 16.1453 2.90916 15.7089L0.630368 25.4059C0.339459 26.715 0.630368 28.0726 1.45461 29.0908C2.27885 30.1574 3.53946 30.7392 4.84855 30.7392H27.1516C28.5092 30.7392 29.7213 30.1574 30.5455 29.0908C31.4183 28.0241 31.7092 26.715 31.4183 25.4059ZM20.2667 19.7817C20.2667 20.6544 19.5879 21.3332 18.7152 21.3332H13.2849C12.4122 21.3332 11.7334 20.6544 11.7334 19.7817V16.8241C11.7334 15.9514 12.4122 15.2726 13.2849 15.2726H18.6667C19.5395 15.2726 20.2183 15.9514 20.2183 16.8241L20.2667 19.7817ZM18.7152 16.2908H13.2849C12.994 16.2908 12.7516 16.5332 12.7516 16.8241V19.7817C12.7516 20.0726 12.994 20.315 13.2849 20.315H18.6667C18.9576 20.315 19.2001 20.0726 19.2001 19.7817V16.8241C19.2001 16.5332 18.9576 16.2908 18.7152 16.2908ZM18.7152 16.2908H13.2849C12.994 16.2908 12.7516 16.5332 12.7516 16.8241V19.7817C12.7516 20.0726 12.994 20.315 13.2849 20.315H18.6667C18.9576 20.315 19.2001 20.0726 19.2001 19.7817V16.8241C19.2001 16.5332 18.9576 16.2908 18.7152 16.2908ZM18.7152 16.2908H13.2849C12.994 16.2908 12.7516 16.5332 12.7516 16.8241V19.7817C12.7516 20.0726 12.994 20.315 13.2849 20.315H18.6667C18.9576 20.315 19.2001 20.0726 19.2001 19.7817V16.8241C19.2001 16.5332 18.9576 16.2908 18.7152 16.2908Z" fill="#388FF3"/>
</svg>
