<svg width="32" height="32" viewBox="0 0 32 32" fill="none" xmlns="http://www.w3.org/2000/svg">
<path fill-rule="evenodd" clip-rule="evenodd" d="M7.95698 28.9335C9.30765 25.4402 12.6997 22.9602 16.6663 22.9602C20.633 22.9602 24.025 25.4402 25.3757 28.9335C25.4943 29.2402 25.4543 29.5869 25.2677 29.8589C25.081 30.1309 24.773 30.2935 24.4423 30.2935H8.89032C8.56099 30.2935 8.25165 30.1309 8.06498 29.8589C7.87965 29.5869 7.83832 29.2402 7.95698 28.9335Z" fill="#388FF3"/>
<path fill-rule="evenodd" clip-rule="evenodd" d="M16.976 24.1774C16.856 24.7161 16.3214 25.0561 15.7827 24.9361C15.244 24.8161 14.904 24.2814 15.024 23.7427C15.024 23.7427 15.936 19.6334 15.0227 15.3867C14.436 12.6627 13.092 9.86541 10.1627 8.15741C9.6867 7.87874 9.52537 7.26674 9.8027 6.78941C10.0814 6.31341 10.6934 6.15207 11.1707 6.42941C14.6414 8.45474 16.284 11.7374 16.9774 14.9654C17.984 19.6467 16.976 24.1774 16.976 24.1774Z" fill="#388FF3"/>
<path fill-rule="evenodd" clip-rule="evenodd" d="M17.4067 18.824C17.2974 19.3653 16.7694 19.716 16.2294 19.6067C15.6881 19.4973 15.3374 18.9707 15.4467 18.4293C15.4467 18.4293 15.8654 16.1 18.8974 13.2333C19.2987 12.8547 19.9321 12.872 20.3107 13.2733C20.6907 13.6747 20.6721 14.308 20.2721 14.6867C17.8254 17 17.4067 18.824 17.4067 18.824Z" fill="#388FF3"/>
<path fill-rule="evenodd" clip-rule="evenodd" d="M19.0467 15.8015C18.9494 15.5402 18.6134 14.5522 18.5867 13.4068C18.5521 11.9242 19.0187 10.2255 20.8774 9.2735C24.1987 7.57483 28.2894 8.7695 30.0881 10.8415C30.3081 11.0948 30.3867 11.4388 30.2974 11.7615C30.2094 12.0842 29.9667 12.3402 29.6494 12.4468C29.6494 12.4468 28.0121 13.0428 26.8947 15.2775C26.3427 16.3802 24.9334 17.5642 23.4361 17.9735C22.6094 18.1988 21.7654 18.1948 21.0107 17.8908C20.7521 17.7868 20.5001 17.6468 20.2641 17.4668C20.6227 17.0175 21.0641 16.5308 21.6054 16.0202C22.0054 15.6415 22.0241 15.0082 21.6441 14.6068C21.2654 14.2055 20.6321 14.1882 20.2307 14.5668C19.7801 14.9922 19.3881 15.4055 19.0467 15.8015Z" fill="#388FF3"/>
<path fill-rule="evenodd" clip-rule="evenodd" d="M12.3652 13.8521C11.8506 14.0828 11.3546 14.1908 10.8852 14.2108C9.44388 14.2708 8.16655 13.4721 7.16122 12.3494C6.19988 11.2748 5.48922 9.92676 5.09322 9.07209C4.22388 7.20143 1.92255 4.65209 1.92255 4.65209C1.70788 4.41342 1.62122 4.08676 1.68922 3.77342C1.75722 3.46009 1.97055 3.19742 2.26388 3.06809C6.17188 1.35342 10.9172 0.901425 14.6252 3.87076C16.3492 5.25209 16.5772 7.00943 16.2079 8.63076C15.7186 10.7801 14.0839 12.6454 14.0839 12.6454C14.0719 12.6588 14.0586 12.6721 14.0466 12.6854C13.1052 10.5094 11.5772 8.50009 9.17055 7.09609C8.69322 6.81876 8.08122 6.98009 7.80255 7.45609C7.52522 7.93342 7.68655 8.54542 8.16255 8.82409C10.2999 10.0708 11.5946 11.8974 12.3652 13.8521Z" fill="#388FF3"/>
</svg>
