<svg width="32" height="32" viewBox="0 0 32 32" fill="none" xmlns="http://www.w3.org/2000/svg">
<g clip-path="url(#clip0_50_6490)">
<path d="M10.5898 2.40527C10.3385 2.507 10.1112 2.65062 9.90771 2.83009C10.0573 4.04475 10.6617 5.16367 11.5891 5.90564C11.6489 5.95351 11.7327 5.98343 11.8105 5.98343C12.008 5.98343 12.1695 5.82186 12.1635 5.61845C12.1635 5.51074 12.1156 5.415 12.0378 5.34917C11.1762 4.65507 10.6437 3.56608 10.5898 2.40527Z" fill="#388FF3"/>
<path d="M13.8447 8.60425H18.3204V9.44196H13.8447V8.60425Z" fill="#388FF3"/>
<path d="M13.2344 0.382812H14.4371V1.14872H13.2344V0.382812Z" fill="#388FF3"/>
<path d="M3.88807 3.72776H8.48341C8.90823 2.40538 10.1289 1.51386 11.5171 1.50788H12.5163V0.0239363V0H5.6592C4.29494 0 3.18799 1.10695 3.18799 2.47121V3.72776H3.88807Z" fill="#388FF3"/>
<path d="M18.8173 7.88627V4.96631H13.3604V7.88627H13.486H18.6797H18.8173Z" fill="#388FF3"/>
<path d="M27.5351 19.8413C27.3796 19.6917 26.6795 19.4045 25.4529 19.4045C24.2263 19.4045 23.5262 19.6918 23.3706 19.8413C23.5262 19.9909 24.2263 20.2781 25.4529 20.2781C26.6795 20.2781 27.3796 19.9909 27.5351 19.8413Z" fill="#388FF3"/>
<path d="M12.5048 27.0935H19.5294V20.015C19.5294 19.9791 19.5294 19.9432 19.5354 19.9073C19.0627 19.2251 18.3327 18.2618 17.2198 16.8916C15.8495 15.2162 14.4674 13.6365 14.0724 13.1877C12.4569 13.2715 11.1824 14.5999 11.1704 16.2214C11.2183 16.5804 11.667 20.2064 11.667 21.4869C11.667 22.528 11.2243 25.442 11.1704 25.7831C11.1824 26.5131 11.7747 27.0935 12.5048 27.0935Z" fill="#388FF3"/>
<path d="M4.19947 4.4458L3.50537 9.81304H8.23236L7.53826 4.4458H6.95188V8.90955C6.95188 9.10702 6.79031 9.26854 6.59289 9.26854C6.39546 9.26854 6.2339 9.10697 6.2339 8.90955V4.4458H5.39019V8.90955C5.39019 9.10702 5.22862 9.26854 5.0312 9.26854C4.83373 9.26854 4.67221 9.10697 4.67221 8.90955V4.4458H4.19947Z" fill="#388FF3"/>
<path d="M21.6472 18.7944C21.019 19.0458 20.5702 19.3509 20.3668 19.6561C20.3548 19.674 20.3428 19.692 20.3368 19.7099C20.3308 19.7099 20.3308 19.7099 20.3308 19.7159C20.3249 19.7339 20.3129 19.7458 20.3069 19.7638H20.3009L20.283 19.8177H20.277L20.259 19.8775V19.8895C20.2531 19.9014 20.2531 19.9194 20.2531 19.9313C20.2531 19.9373 20.2471 19.9433 20.2471 19.9493V20.0032C20.2531 20.1348 20.2949 20.2545 20.3668 20.3621C20.5702 20.6673 21.019 20.9725 21.6472 21.2238C21.8866 21.3136 22.1319 21.3973 22.3772 21.4632C22.6046 21.523 22.838 21.5828 23.0893 21.6247C23.8672 21.7743 24.657 21.8461 25.4528 21.8402C26.4939 21.8402 27.4872 21.7265 28.3368 21.5111L30.4132 20.5178C30.461 20.47 30.5029 20.4161 30.5388 20.3623C30.7004 20.1468 30.7004 19.8596 30.5388 19.6442C30.3354 19.3391 29.8866 19.0339 29.2583 18.7826C28.2471 18.3817 26.8948 18.1663 25.4528 18.1663C24.7527 18.1663 24.0526 18.2201 23.3585 18.3278C23.1012 18.3697 22.8559 18.4236 22.6225 18.4774C22.2875 18.5611 21.9644 18.6628 21.6472 18.7944ZM25.4528 18.6867C26.853 18.6867 28.271 19.0397 28.271 19.8415C28.271 20.6433 26.8529 20.9964 25.4528 20.9964C24.0526 20.9964 22.6346 20.6374 22.6346 19.8415C22.6346 19.0457 24.0526 18.6867 25.4528 18.6867Z" fill="#388FF3"/>
<path d="M25.4527 22.5699C24.6629 22.5699 23.8671 22.5041 23.0892 22.3724C22.8379 22.3306 22.5926 22.2767 22.3652 22.2169C21.4677 21.9895 20.7377 21.6664 20.2471 21.2715V28.8885C20.2471 29.2834 20.7198 29.7143 21.5276 30.0553L21.6472 30.1032C21.9345 30.2169 22.2336 30.3126 22.5328 30.3844C23.3047 30.5759 24.0945 30.6896 24.8903 30.7135V23.4017C24.8903 23.264 24.9681 23.1384 25.0938 23.0786L26.1948 22.552C25.9494 22.5639 25.7041 22.5699 25.4527 22.5699Z" fill="#388FF3"/>
<path d="M25.6084 23.629V32L26.9368 31.3657L30.6585 29.5826V21.2715C30.1679 21.6664 29.4439 21.9895 28.5583 22.2169L25.6084 23.629Z" fill="#388FF3"/>
<path d="M21.1146 16.6523C21.2104 16.6343 21.2822 16.5505 21.2881 16.4548C21.33 16.036 21.354 15.6231 21.354 15.2162C21.354 14.187 21.1804 13.2237 20.5522 12.5117C19.9239 11.7996 18.9606 11.4526 17.5843 11.4167C17.5245 11.4107 17.4646 11.4346 17.4228 11.4765C17.3928 11.5064 17.3689 11.5423 17.3569 11.5842C17.4886 11.8535 18.1647 12.8587 19.152 14.1871C20.1393 15.5155 20.8753 16.4309 21.1146 16.6523Z" fill="#388FF3"/>
<path d="M8.29808 28.0269C8.30407 27.985 8.99218 23.5093 8.99218 22.0434C8.99218 20.2363 8.30407 14.7374 8.29808 14.6776C8.2921 14.6656 8.2921 14.6477 8.2921 14.6357C8.2921 13.8518 8.47162 13.08 8.81266 12.3799L8.35792 10.531H3.39157L2.80518 13.5647L1.35116 27.8354C1.29132 28.3859 1.47084 28.9364 1.8418 29.3433C2.21276 29.7561 2.73936 29.9895 3.28984 29.9895H9.06394C8.56731 29.4809 8.29204 28.7928 8.29204 28.0807C8.2921 28.0628 8.2921 28.0448 8.29808 28.0269Z" fill="#388FF3"/>
<path d="M19.5293 28.8887V27.8116H12.5046C11.3737 27.8056 10.4582 26.8902 10.4523 25.7593C10.4523 25.7413 10.4523 25.7233 10.4582 25.7054C10.4642 25.6755 10.9489 22.5162 10.9489 21.487C10.9489 20.2125 10.4582 16.3292 10.4582 16.2873C10.4523 16.2753 10.4523 16.2574 10.4523 16.2454C10.4582 14.1631 12.1456 12.4758 14.2279 12.4698C14.3296 12.4698 14.4313 12.5117 14.4972 12.5895C14.5151 12.6074 16.1546 14.4563 17.7762 16.4369C18.7096 17.5798 19.3797 18.4534 19.8645 19.1295C20.3611 18.5132 21.3723 18.0166 22.7006 17.7294C22.8622 16.1916 23.0357 14.8274 23.0596 14.6119C23.0417 12.1527 21.0551 10.1721 18.5959 10.1602H13.48C11.8525 10.1602 10.3566 11.0457 9.5727 12.4698C9.36326 12.8467 9.20773 13.2537 9.11797 13.6725C9.04616 13.9836 9.01025 14.2948 9.01025 14.6119C9.07009 15.0547 9.71034 20.2304 9.71034 22.0435C9.71034 23.5154 9.07608 27.686 9.01025 28.1108C9.02222 28.7989 9.38121 29.4391 9.96161 29.8041C10.2249 29.9717 10.5181 30.0734 10.8233 30.1092L11.0507 30.1212H20.2175C19.7746 29.7562 19.5293 29.3374 19.5293 28.8887ZM16.6333 11.6082C16.6393 11.3569 16.747 11.1176 16.9324 10.95C17.1119 10.7765 17.3513 10.6867 17.6026 10.6987C19.1882 10.7406 20.3311 11.1833 21.085 12.039C22.1441 13.2297 22.156 14.8991 22.0064 16.5207C21.9586 17.0054 21.5517 17.3764 21.067 17.3764H20.9773C20.8037 17.3584 20.5884 17.3405 18.5899 14.6479C18.0872 13.9717 17.6205 13.3195 17.2735 12.805C16.6273 11.8415 16.6273 11.7338 16.6333 11.6082Z" fill="#388FF3"/>
</g>
<defs>
<clipPath id="clip0_50_6490">
<rect width="32" height="32" fill="white"/>
</clipPath>
</defs>
</svg>
