<svg width="32" height="32" viewBox="0 0 32 32" fill="none" xmlns="http://www.w3.org/2000/svg">
<path d="M18.6769 9.49827C18.7969 9.35158 18.9302 9.22164 19.0735 9.10496C16.2656 8.53271 14.6212 9.71802 12.9902 11.5883C15.9983 11.9075 16.6992 11.869 18.6769 9.49827Z" fill="#388FF3"/>
<path d="M26.6399 16.9416C25.8292 16.9416 25.063 17.128 24.3736 17.4519L23.3901 15.8915C25.2464 14.9317 26.6736 15.3386 28.4267 15.2417C29.0567 15.2417 29.61 14.8884 29.8766 14.3184C30.1433 13.7484 30.0566 13.0951 29.6533 12.6151L24.0466 5.92838C23.5366 5.32169 22.71 5.14507 22.0199 5.45169H22.0166L19.8 4.40501C19.47 4.24838 19.07 4.39169 18.9134 4.72501C18.7567 5.05832 18.9001 5.45501 19.2333 5.61169L21.0733 6.48169C20.8676 7.01632 20.9749 7.70838 21.41 8.19832L23.1767 10.205C23.2867 10.3283 23.2834 10.515 23.17 10.6349C23.0633 10.7483 22.8934 10.7683 22.7633 10.6816L21.78 10.0383C21.11 9.59832 20.2167 9.73169 19.7 10.3516C17.27 13.2649 16.04 13.2749 12.5267 12.8749C11.1866 12.7183 10.1034 12.2449 9.30675 11.4649C7.98675 10.1716 6.40344 9.36826 4.73012 9.14501L2.2235 8.81169C1.26706 8.68001 0.406812 9.42901 0.406812 10.4017C0.406812 10.985 0.723437 11.5218 1.2335 11.805C2.53687 12.5283 6.92681 14.9683 8.58019 16.025C8.97169 16.2748 9.30044 16.5601 9.58619 16.8658L8.5245 17.987C7.636 17.333 6.54275 16.9417 5.35681 16.9417C2.40337 16.9417 0 19.3451 0 22.3017C0 25.255 2.40337 27.6584 5.35669 27.6584C8.31331 27.6584 10.7167 25.255 10.7167 22.3017C10.7167 21.0109 10.2583 19.8258 9.49612 18.8998L10.379 17.9674C11.2306 19.5583 11.2234 21.4123 11.0933 22.5984C10.9599 23.7849 11.8955 24.8151 13.08 24.8151H17.43C18.32 24.8151 19.1134 24.2151 19.3566 23.3584L20.4533 19.4751C20.7732 18.3411 21.4257 17.3657 22.2829 16.6362L23.2436 18.1603C22.0477 19.1439 21.2833 20.6347 21.2833 22.3018C21.2833 25.2551 23.6866 27.6584 26.6399 27.6584C29.5966 27.6584 31.9999 25.2551 31.9999 22.3018C32 19.345 29.5966 16.9416 26.6399 16.9416ZM8.0495 22.3004C8.0495 23.7845 6.84219 24.9919 5.35806 24.9919C3.87369 24.9919 2.66631 23.7846 2.66631 22.3004C2.66631 20.8164 3.87362 19.609 5.35806 19.609C5.83256 19.609 6.27806 19.7335 6.66562 19.9499L5.68425 20.9864C5.57925 20.9602 5.47106 20.9423 5.35812 20.9423C4.60906 20.9423 3.99969 21.5515 3.99969 22.3004C3.99969 23.0493 4.60906 23.6584 5.35812 23.6584C6.10681 23.6584 6.71619 23.0493 6.71619 22.3004C6.71619 22.1619 6.68925 22.0309 6.65056 21.9049L7.63262 20.8678C7.89519 21.2833 8.0495 21.7737 8.0495 22.3004ZM26.6416 24.9919C25.1575 24.9919 23.9501 23.7846 23.9501 22.3004C23.9501 21.5852 24.2324 20.936 24.6891 20.4534L25.4506 21.6615C25.3474 21.8528 25.2834 22.0683 25.2834 22.3004C25.2834 23.0493 25.8928 23.6585 26.6415 23.6585C27.3902 23.6585 27.9996 23.0493 27.9996 22.3004C27.9996 21.5515 27.3902 20.9424 26.6415 20.9424C26.6197 20.9424 26.5993 20.9478 26.5777 20.9488L25.8157 19.7399C26.0761 19.6556 26.3534 19.609 26.6415 19.609C28.1256 19.609 29.3329 20.8163 29.3329 22.3004C29.333 23.7845 28.1256 24.9919 26.6416 24.9919Z" fill="#388FF3"/>
</svg>
